<?xml version="1.0" standalone="no"?><!DOCTYPE svg PUBLIC "-//W3C//DTD SVG 1.1//EN" "http://www.w3.org/Graphics/SVG/1.1/DTD/svg11.dtd"><svg t="1680698186602" class="icon" viewBox="0 0 1024 1024" version="1.1" xmlns="http://www.w3.org/2000/svg" p-id="2753" xmlns:xlink="http://www.w3.org/1999/xlink" width="200" height="200"><path d="M298.666667 256a42.666667 42.666667 0 0 0 0-85.333333H213.333333a42.666667 42.666667 0 0 0-42.666666 42.666666v597.333334a42.666667 42.666667 0 0 0 42.666666 42.666666h85.333334a42.666667 42.666667 0 0 0 0-85.333333H256V256zM888.32 487.253333l-120.32-170.666666a42.666667 42.666667 0 0 0-59.306667-10.24 42.666667 42.666667 0 0 0-10.24 59.733333L771.84 469.333333H426.666667a42.666667 42.666667 0 0 0 0 85.333334h341.333333l-76.8 102.4a42.666667 42.666667 0 0 0 8.533333 59.733333 42.666667 42.666667 0 0 0 25.6 8.533333 42.666667 42.666667 0 0 0 34.133334-17.066666l128-170.666667a42.666667 42.666667 0 0 0 0.853333-50.346667z" fill="#000000" p-id="2754"></path></svg>