<?xml version="1.0" standalone="no"?><!DOCTYPE svg PUBLIC "-//W3C//DTD SVG 1.1//EN" "http://www.w3.org/Graphics/SVG/1.1/DTD/svg11.dtd"><svg class="icon" width="200px" height="200.00px" viewBox="0 0 1024 1024" version="1.1" xmlns="http://www.w3.org/2000/svg"><path d="M512 512m-512 0a512 512 0 1 0 1024 0 512 512 0 1 0-1024 0Z" fill="#8BB7F9" opacity=".15" /><path d="M744.855273 324.258909H279.272727a40.389818 40.389818 0 0 0-40.343272 40.343273v286.254545a40.378182 40.378182 0 0 0 40.343272 40.331637h189.312l-41.192727 41.192727a19.909818 19.909818 0 1 0 28.16 28.136727l67.642182-67.630545 67.630545 67.630545a19.909818 19.909818 0 1 0 28.16-28.136727l-41.192727-41.192727h166.946909a40.378182 40.378182 0 0 0 40.343273-40.331637v-286.254545a40.413091 40.413091 0 0 0-40.203637-40.343273m-252.695272 250.740364h-111.290182a19.909818 19.909818 0 0 1-1.163636-39.808h111.32509a19.909818 19.909818 0 0 1 1.163637 39.808m133.515636-91.473455h-244.840727a19.909818 19.909818 0 0 1-1.163636-39.796363H625.733818a19.909818 19.909818 0 0 1 0 39.796363" fill="#6DA9F7" /></svg>